<svg xmlns="http://www.w3.org/2000/svg" viewBox="0 0 74.1 66.82">
    <style>
        path {
            fill: black;
        }
        @media (prefers-color-scheme: dark) {
            path {
                fill: white;
            }
        }
    </style>
    <path d="M32.46,49.32C35.27,44,36.33,37,34.11,31.25a16.5,16.5,0,0,0-4.3-6.42,4.43,4.43,0,0,0-6.89-3.41,21.35,21.35,0,0,0-5.81-.48,4.5,4.5,0,0,0-.13,9,52.62,52.62,0,0,0-4.13,8.87c-2,5.94-3.12,14.78,3.82,18C22.92,59.71,29.61,54.72,32.46,49.32ZM26.24,38.54A14.73,14.73,0,0,1,26.13,40c0,.12,0,.31-.05.35,0,.24-.09.47-.14.71a24.75,24.75,0,0,1-.82,2.79l0,.07c-.08.17-.16.35-.25.52a13,13,0,0,1-.7,1.26c-.09.15-.19.3-.29.45l-.18.25-.2.24c-.19.22-.4.44-.61.64s-1.27.89-.43.42c-.36.2-.69.45-1.05.64l-.35.16-.15,0-.33.09-.07-.07,0-.05-.05-.09c-.07-.21-.13-.41-.18-.62.05.19,0,.79,0-.17a11.08,11.08,0,0,1,0-1.15c0-.06,0-.42.06-.6s.05-.26.05-.26c.11-.58.23-1.15.37-1.72a33.17,33.17,0,0,1,1-3.35l.31-.81a1.91,1.91,0,0,0,.1-.27l0-.08c.27-.6.54-1.2.83-1.79.59-1.19,1.22-2.35,1.88-3.5l.4-.65c.09.17.17.34.26.5v0c.11.44.29.87.4,1.32.06.23.1.46.14.68,0-.15.07.33.07.43A18.41,18.41,0,0,1,26.24,38.54Z" transform="translate(-11.31 -16.61)"/><path d="M76.32,40.47h0c0-.06,0-.12,0-.18S76.34,40.4,76.32,40.47Z" transform="translate(-11.31 -16.61)"/><path d="M83.19,31.91a18.39,18.39,0,0,0-7-6.45A28.85,28.85,0,0,0,72.88,24c.13-.24.25-.48.38-.71a4.5,4.5,0,1,0-7.77-4.54c-.66,1.19-1.27,2.41-1.85,3.65a4.27,4.27,0,0,0-2.46,2.85,4.79,4.79,0,0,0,.2,2.84,52.41,52.41,0,0,0-1.72,6.54c-1.07,5.62-2.87,15.7,4.57,17.8,2.85.81,6.36.07,9.16-.6A20,20,0,0,0,81,48.49C86.22,44.46,86.62,37.29,83.19,31.91ZM66.42,43.75h0Zm1.32.9.12.09Zm8.57-4.13v-.05s0,0,0,0L76,41l-.11.1-.39.36c-.37.21-.71.45-1.08.64l-.51.25c-.47.16-.93.33-1.4.48a26.7,26.7,0,0,1-3.09.73c-.22.05-.44.08-.67.12.72-.13,0,0-.15,0l-.94.08c0-.56,0-1.12,0-1.68s.07-1,.12-1.56l.09-.88s0-.17,0-.3,0-.26,0-.27c0-.3.09-.59.14-.88.09-.59.2-1.17.32-1.76.28-1.35.62-2.7,1-4l1.1.38.5.19.22.1c.43.22.87.44,1.29.7.14.08.63.43.75.5a12.77,12.77,0,0,1,1,.93c.19.19.37.39.55.59a2,2,0,0,1,.16.18l.13.18c.15.23.3.45.43.67s.26.47.38.71a1.51,1.51,0,0,1,.08.19c0,.09.07.2.08.22.09.3.15.67.26,1,0,0,0,0,0,.05s0,.34,0,.51,0,.35,0,.53h0a2.17,2.17,0,0,0-.1.33c.08-.3.08,0,0,.18Z" transform="translate(-11.31 -16.61)"/><path d="M68.8,59.7c-1.27,1.25-2.58,2.44-4,3.57-.36.31-.73.6-1.1.89l-.57.43c-.66.49-1.33,1-2,1.42a54.91,54.91,0,0,1-9.11,5l-.65.27-1.14.43c-.9.33-1.8.63-2.71.9a45.32,45.32,0,0,1-5.14,1.26q-.6.12-1.2.21l-.76.11c-.84.1-1.69.19-2.53.23-.34,0-.68,0-1,0,.17,0,.06,0-.13-.06a4.55,4.55,0,0,0-5.38-2.71,4.6,4.6,0,0,0-3.15,5.54,8.18,8.18,0,0,0,5.59,5.75,16.18,16.18,0,0,0,7,.22,52.15,52.15,0,0,0,12.62-3,63.55,63.55,0,0,0,21.74-14A4.5,4.5,0,0,0,68.8,59.7Z" transform="translate(-11.31 -16.61)"/>
</svg>