<?xml version="1.0" encoding="UTF-8"?>
<svg xmlns="http://www.w3.org/2000/svg" version="1.1" viewBox="0 0 670 560.9">
  <defs>
    <style>
      .cls-1 {
        fill: none;
      }
    </style>
  </defs>
  <!-- Generator: Adobe Illustrator 28.7.1, SVG Export Plug-In . SVG Version: 1.2.0 Build 142)  -->
  <g>
    <g id="Layer_1">
      <g id="Layer_2">
        <g id="Layer_1-2">
          <path class="cls-1" d="M1,18.7c64.3,170,101.8,348.9,159.4,521.3,28.5-57.4,42.9-120.6,57-183.1L289.4,38.8"/>
          <path class="cls-1" d="M337.9,100.9c-8.2,35.5-8.3,72.3-.3,107.8,1.8,7.8,5.2,16.8,12.9,18.5,4.1.9,8.4-.5,12.3-2.1,54.4-22.5,91.2-81.8,87.2-140.6-.3-3.7-.9-7.9-4-10-5.1-3.5-11.7,1.5-15.5,6.5-21.9,28.7-29.2,67.9-19.1,102.6,2.2,7.6,5.4,15.3,11.2,20.8,4.9,4.6,11.2,7.3,17.4,9.7,32.1,12.4,70.7,18.8,99-.6"/>
          <path class="cls-1" d="M581.3,50.7c-8.9,32.5-12.2,66.3-9.5,99.9.8,10.6,2.3,21.3,6.3,31.2,1.8,4.6,4.3,9.2,8.3,12.2,4.3,3.3,9.8,4.4,15.1,4.9,21.2,1.6,42.1-6.4,56.8-21.7"/>
          <path class="cls-1" d="M529.3,82.9c31.3-1.2,62.4-4.7,93.2-10.5"/>
          <path class="cls-1" d="M422.2,35.2c22.3-9.8,43.8-21.1,64.5-33.9.9-.6,1.9-1.1,2.9-1.3,2.8-.4,5,2.3,6.5,4.7,4.4,6.7,8.8,13.4,13.2,20.1"/>
          <path class="cls-1" d="M304.6,328.7c-7.5,76-19,151.6-34.7,226.4"/>
          <path class="cls-1" d="M328.9,323c14.9-5.6,30.4-11.4,46.2-9.6s31.7,13.7,32.2,29.6c.4,12.3-8.1,23.1-17.4,31.2-23,20.2-52.9,32-73.4,54.7,29.9,6.7,59.2,15.4,87.9,26,6,2.2,12.3,4.7,16.8,9.3,5.3,5.4,7.7,13,8.2,20.5,1.7,26.9-19.4,51-44.2,61.5s-52.6,10.5-79.5,10.2"/>
          <path class="cls-1" d="M478.9,421.6c-2,27.8-2.7,55.6-2.1,83.4.3,12.9,1,26.5,7.8,37.5,3.3,5.3,8.2,10,14.4,11.2,4.3.7,8.7,0,12.7-1.7,17.5-7.1,26.4-26.6,30.5-45.1,7.7-34.6,4.1-70.6,5.3-106.1"/>
          <path class="cls-1" d="M606.3,381.4c3.4,29-2.8,58.2-5.7,87.3s-2.1,60.3,13.4,85c1.4,2.3,3,4.5,5.4,5.8,5,2.8,11.3.5,16.3-2.3,13.4-7.3,25.4-17,35.3-28.6"/>
          <path class="cls-1" d="M494.6,352.3l52.8,5"/>
        </g>
      </g>
      <path class="cls-1" d="M411.5,231.8l-2.1-2.2c-3.4-3.7-9.6-2.3-11.1,2.5l-.2.6c-.9,2.7.2,5.7,2.5,7.4l2.3,1.6c2.3,1.6,5.3,1.6,7.6,0h0c3.3-2.3,3.8-7,1-9.9Z"/>
    </g>
  </g>
</svg>